<svg xmlns="http://www.w3.org/2000/svg" version="1.1" xmlns:xlink="http://www.w3.org/1999/xlink" xmlns:svgjs="http://svgjs.dev/svgjs" viewBox="0 0 7.574636169030947 2.1287784221093298"><g transform="matrix(1,0,0,1,1.5551824526976834,0.3497390124166896)"><g><path d=" M 0.726 2.220446049250313e-16 L 0.726 1.0125000000000002 Q 0.726 1.08 0.75075 1.1122500000000002 Q 0.7755 1.1445 0.84 1.1445 L 0.84 1.1760000000000002 Q 0.7935 1.1715000000000002 0.747 1.1715000000000002 Q 0.7035 1.1715000000000002 0.6637500000000001 1.1760000000000002 Q 0.624 1.1805 0.591 1.1925000000000001 L 0.591 0.18000000000000016 Q 0.591 0.11250000000000004 0.5670000000000001 0.08025000000000015 Q 0.543 0.04800000000000004 0.47700000000000004 0.04800000000000004 L 0.47700000000000004 0.01650000000000018 Q 0.525 0.02100000000000013 0.5700000000000001 0.02100000000000013 Q 0.6135 0.02100000000000013 0.65325 0.015750000000000153 Q 0.6930000000000001 0.010500000000000176 0.726 2.220446049250313e-16 M 0.41100000000000003 0.3825000000000002 Q 0.47700000000000004 0.3825000000000002 0.5347500000000001 0.41400000000000015 Q 0.5925 0.4455000000000001 0.612 0.5220000000000001 L 0.5925 0.5370000000000001 Q 0.5715 0.4740000000000001 0.52725 0.4455000000000001 Q 0.483 0.41700000000000015 0.423 0.41700000000000015 Q 0.3345 0.41700000000000015 0.27525 0.5085000000000002 Q 0.216 0.6000000000000001 0.2175 0.7905000000000002 Q 0.2175 0.9120000000000001 0.24075 0.9922500000000002 Q 0.264 1.0725000000000002 0.30975 1.1122500000000002 Q 0.3555 1.1520000000000001 0.4215 1.1520000000000001 Q 0.4845 1.1520000000000001 0.5355 1.098 Q 0.5865 1.044 0.597 0.9390000000000002 L 0.615 0.9600000000000002 Q 0.603 1.074 0.54225 1.1355000000000002 Q 0.4815 1.197 0.378 1.197 Q 0.28500000000000003 1.197 0.21525 1.1520000000000001 Q 0.1455 1.1070000000000002 0.10875 1.0170000000000001 Q 0.07200000000000001 0.9270000000000002 0.07200000000000001 0.7905000000000002 Q 0.07200000000000001 0.6540000000000001 0.11925000000000001 0.5632500000000001 Q 0.1665 0.47250000000000014 0.24375 0.4275000000000001 Q 0.321 0.3825000000000002 0.41100000000000003 0.3825000000000002 M 1.142990478515625 1.1865 Q 1.081490478515625 1.1865 1.036490478515625 1.1632500000000001 Q 0.991490478515625 1.1400000000000001 0.968240478515625 1.098 Q 0.944990478515625 1.056 0.944990478515625 1.0005000000000002 Q 0.944990478515625 0.9345000000000001 0.975740478515625 0.8925000000000001 Q 1.006490478515625 0.8505000000000001 1.054490478515625 0.8250000000000002 Q 1.102490478515625 0.7995000000000001 1.1557404785156251 0.7822500000000001 Q 1.208990478515625 0.7650000000000001 1.256990478515625 0.7492500000000002 Q 1.304990478515625 0.7335000000000002 1.335740478515625 0.7125000000000001 Q 1.366490478515625 0.6915000000000002 1.366490478515625 0.6570000000000001 L 1.366490478515625 0.5640000000000002 Q 1.366490478515625 0.5010000000000001 1.347740478515625 0.4680000000000002 Q 1.328990478515625 0.43500000000000016 1.2974904785156252 0.4237500000000002 Q 1.265990478515625 0.4125000000000001 1.2269904785156251 0.4125000000000001 Q 1.189490478515625 0.4125000000000001 1.146740478515625 0.42300000000000015 Q 1.103990478515625 0.4335000000000001 1.078490478515625 0.46650000000000014 Q 1.106990478515625 0.47250000000000014 1.127990478515625 0.49650000000000016 Q 1.148990478515625 0.5205000000000002 1.148990478515625 0.5580000000000002 Q 1.148990478515625 0.5955000000000001 1.124990478515625 0.6172500000000002 Q 1.100990478515625 0.6390000000000001 1.063490478515625 0.6390000000000001 Q 1.019990478515625 0.6390000000000001 0.999740478515625 0.6112500000000002 Q 0.979490478515625 0.5835000000000001 0.979490478515625 0.5490000000000002 Q 0.979490478515625 0.5100000000000001 0.9989904785156251 0.4860000000000001 Q 1.018490478515625 0.4620000000000002 1.048490478515625 0.44100000000000017 Q 1.082990478515625 0.41700000000000015 1.137740478515625 0.39975000000000016 Q 1.192490478515625 0.3825000000000002 1.2614904785156251 0.3825000000000002 Q 1.322990478515625 0.3825000000000002 1.366490478515625 0.39675000000000016 Q 1.409990478515625 0.41100000000000014 1.4384904785156252 0.43800000000000017 Q 1.4774904785156249 0.4740000000000001 1.4894904785156249 0.5257500000000002 Q 1.501490478515625 0.5775000000000001 1.501490478515625 0.6495000000000002 L 1.501490478515625 1.0665000000000002 Q 1.501490478515625 1.104 1.5127404785156249 1.1205 Q 1.523990478515625 1.1370000000000002 1.5479904785156249 1.1370000000000002 Q 1.564490478515625 1.1370000000000002 1.5794904785156252 1.1295000000000002 Q 1.5944904785156249 1.122 1.615490478515625 1.1055000000000001 L 1.631990478515625 1.1310000000000002 Q 1.600490478515625 1.1550000000000002 1.571990478515625 1.1707500000000002 Q 1.5434904785156252 1.1865 1.495490478515625 1.1865 Q 1.451990478515625 1.1865 1.423490478515625 1.1715000000000002 Q 1.394990478515625 1.1565 1.380740478515625 1.12725 Q 1.366490478515625 1.098 1.366490478515625 1.0530000000000002 Q 1.325990478515625 1.1205 1.269740478515625 1.1535000000000002 Q 1.213490478515625 1.1865 1.142990478515625 1.1865 M 1.196990478515625 1.1265 Q 1.246490478515625 1.1265 1.289240478515625 1.098 Q 1.3319904785156251 1.0695000000000001 1.366490478515625 1.0125000000000002 L 1.366490478515625 0.7185000000000001 Q 1.348490478515625 0.7440000000000002 1.313990478515625 0.7612500000000002 Q 1.279490478515625 0.7785000000000002 1.238990478515625 0.7957500000000002 Q 1.198490478515625 0.8130000000000002 1.161740478515625 0.8362500000000002 Q 1.124990478515625 0.8595000000000002 1.100990478515625 0.8970000000000001 Q 1.076990478515625 0.9345000000000001 1.076990478515625 0.9945000000000002 Q 1.076990478515625 1.0545000000000002 1.1092404785156251 1.0905000000000002 Q 1.141490478515625 1.1265 1.196990478515625 1.1265 M 1.93346923828125 0.15450000000000008 L 1.93346923828125 0.40500000000000014 L 2.15546923828125 0.40500000000000014 L 2.15546923828125 0.43500000000000016 L 1.93346923828125 0.43500000000000016 L 1.93346923828125 1.0155 Q 1.93346923828125 1.086 1.95896923828125 1.1145 Q 1.98446923828125 1.1430000000000002 2.02946923828125 1.1430000000000002 Q 2.07446923828125 1.1430000000000002 2.10746923828125 1.1062500000000002 Q 2.1404692382812502 1.0695000000000001 2.1644692382812503 0.9825000000000002 L 2.19446923828125 0.9900000000000002 Q 2.17946923828125 1.0770000000000002 2.13521923828125 1.1370000000000002 Q 2.09096923828125 1.197 1.99946923828125 1.197 Q 1.94846923828125 1.197 1.9154692382812502 1.1842500000000002 Q 1.88246923828125 1.1715000000000002 1.85696923828125 1.1475000000000002 Q 1.82396923828125 1.1130000000000002 1.81121923828125 1.0650000000000002 Q 1.79846923828125 1.0170000000000001 1.79846923828125 0.9375000000000001 L 1.79846923828125 0.43500000000000016 L 1.65446923828125 0.43500000000000016 L 1.65446923828125 0.40500000000000014 L 1.79846923828125 0.40500000000000014 L 1.79846923828125 0.1755000000000002 Q 1.83596923828125 0.17400000000000015 1.87046923828125 0.1695000000000002 Q 1.90496923828125 0.16500000000000004 1.93346923828125 0.15450000000000008 M 2.45097509765625 1.1865 Q 2.3894750976562498 1.1865 2.34447509765625 1.1632500000000001 Q 2.29947509765625 1.1400000000000001 2.27622509765625 1.098 Q 2.25297509765625 1.056 2.25297509765625 1.0005000000000002 Q 2.25297509765625 0.9345000000000001 2.2837250976562498 0.8925000000000001 Q 2.31447509765625 0.8505000000000001 2.36247509765625 0.8250000000000002 Q 2.41047509765625 0.7995000000000001 2.46372509765625 0.7822500000000001 Q 2.5169750976562497 0.7650000000000001 2.5649750976562498 0.7492500000000002 Q 2.61297509765625 0.7335000000000002 2.64372509765625 0.7125000000000001 Q 2.67447509765625 0.6915000000000002 2.67447509765625 0.6570000000000001 L 2.67447509765625 0.5640000000000002 Q 2.67447509765625 0.5010000000000001 2.65572509765625 0.4680000000000002 Q 2.63697509765625 0.43500000000000016 2.60547509765625 0.4237500000000002 Q 2.57397509765625 0.4125000000000001 2.53497509765625 0.4125000000000001 Q 2.49747509765625 0.4125000000000001 2.45472509765625 0.42300000000000015 Q 2.4119750976562497 0.4335000000000001 2.38647509765625 0.46650000000000014 Q 2.41497509765625 0.47250000000000014 2.4359750976562498 0.49650000000000016 Q 2.45697509765625 0.5205000000000002 2.45697509765625 0.5580000000000002 Q 2.45697509765625 0.5955000000000001 2.43297509765625 0.6172500000000002 Q 2.40897509765625 0.6390000000000001 2.37147509765625 0.6390000000000001 Q 2.32797509765625 0.6390000000000001 2.30772509765625 0.6112500000000002 Q 2.28747509765625 0.5835000000000001 2.28747509765625 0.5490000000000002 Q 2.28747509765625 0.5100000000000001 2.3069750976562498 0.4860000000000001 Q 2.32647509765625 0.4620000000000002 2.35647509765625 0.44100000000000017 Q 2.39097509765625 0.41700000000000015 2.44572509765625 0.39975000000000016 Q 2.50047509765625 0.3825000000000002 2.56947509765625 0.3825000000000002 Q 2.63097509765625 0.3825000000000002 2.67447509765625 0.39675000000000016 Q 2.71797509765625 0.41100000000000014 2.74647509765625 0.43800000000000017 Q 2.78547509765625 0.4740000000000001 2.7974750976562497 0.5257500000000002 Q 2.80947509765625 0.5775000000000001 2.80947509765625 0.6495000000000002 L 2.80947509765625 1.0665000000000002 Q 2.80947509765625 1.104 2.8207250976562497 1.1205 Q 2.83197509765625 1.1370000000000002 2.85597509765625 1.1370000000000002 Q 2.87247509765625 1.1370000000000002 2.88747509765625 1.1295000000000002 Q 2.90247509765625 1.122 2.92347509765625 1.1055000000000001 L 2.9399750976562498 1.1310000000000002 Q 2.90847509765625 1.1550000000000002 2.87997509765625 1.1707500000000002 Q 2.85147509765625 1.1865 2.80347509765625 1.1865 Q 2.75997509765625 1.1865 2.73147509765625 1.1715000000000002 Q 2.70297509765625 1.1565 2.68872509765625 1.12725 Q 2.67447509765625 1.098 2.67447509765625 1.0530000000000002 Q 2.6339750976562497 1.1205 2.57772509765625 1.1535000000000002 Q 2.52147509765625 1.1865 2.45097509765625 1.1865 M 2.50497509765625 1.1265 Q 2.55447509765625 1.1265 2.59722509765625 1.098 Q 2.63997509765625 1.0695000000000001 2.67447509765625 1.0125000000000002 L 2.67447509765625 0.7185000000000001 Q 2.65647509765625 0.7440000000000002 2.62197509765625 0.7612500000000002 Q 2.5874750976562497 0.7785000000000002 2.54697509765625 0.7957500000000002 Q 2.5064750976562498 0.8130000000000002 2.4697250976562497 0.8362500000000002 Q 2.43297509765625 0.8595000000000002 2.40897509765625 0.8970000000000001 Q 2.38497509765625 0.9345000000000001 2.38497509765625 0.9945000000000002 Q 2.38497509765625 1.0545000000000002 2.41722509765625 1.0905000000000002 Q 2.44947509765625 1.1265 2.50497509765625 1.1265 M 3.401953857421875 0.1140000000000001 L 3.401953857421875 0.14400000000000013 Q 3.350953857421875 0.14550000000000018 3.3247038574218752 0.1552500000000001 Q 3.298453857421875 0.16500000000000004 3.2894538574218752 0.19125000000000014 Q 3.280453857421875 0.21750000000000014 3.280453857421875 0.27300000000000013 L 3.280453857421875 1.0170000000000001 Q 3.280453857421875 1.0710000000000002 3.2894538574218752 1.098 Q 3.298453857421875 1.1250000000000002 3.3247038574218752 1.1340000000000001 Q 3.350953857421875 1.1430000000000002 3.401953857421875 1.1460000000000001 L 3.401953857421875 1.1760000000000002 Q 3.367453857421875 1.1730000000000003 3.315703857421875 1.1722500000000002 Q 3.263953857421875 1.1715000000000002 3.211453857421875 1.1715000000000002 Q 3.152953857421875 1.1715000000000002 3.1019538574218752 1.1722500000000002 Q 3.050953857421875 1.1730000000000003 3.019453857421875 1.1760000000000002 L 3.019453857421875 1.1460000000000001 Q 3.070453857421875 1.1430000000000002 3.096703857421875 1.1340000000000001 Q 3.122953857421875 1.1250000000000002 3.131953857421875 1.098 Q 3.140953857421875 1.0710000000000002 3.140953857421875 1.0170000000000001 L 3.140953857421875 0.27300000000000013 Q 3.140953857421875 0.21750000000000014 3.131953857421875 0.19125000000000014 Q 3.122953857421875 0.16500000000000004 3.096703857421875 0.1552500000000001 Q 3.070453857421875 0.14550000000000018 3.019453857421875 0.14400000000000013 L 3.019453857421875 0.1140000000000001 Q 3.050953857421875 0.11550000000000016 3.1019538574218752 0.11700000000000021 Q 3.152953857421875 0.11850000000000005 3.211453857421875 0.11850000000000005 Q 3.263953857421875 0.11850000000000005 3.315703857421875 0.11700000000000021 Q 3.367453857421875 0.11550000000000016 3.401953857421875 0.1140000000000001 M 4.0274377441406255 0.3825000000000002 Q 4.084437744140625 0.3825000000000002 4.1226877441406256 0.3975000000000002 Q 4.160937744140625 0.4125000000000001 4.186437744140625 0.4395000000000001 Q 4.2149377441406255 0.46950000000000014 4.226937744140625 0.5145000000000002 Q 4.2389377441406255 0.5595000000000001 4.2389377441406255 0.6360000000000001 L 4.2389377441406255 1.0365000000000002 Q 4.2389377441406255 1.0995000000000001 4.265187744140626 1.122 Q 4.291437744140625 1.1445 4.352937744140625 1.1445 L 4.352937744140625 1.1760000000000002 Q 4.327437744140625 1.1745 4.274937744140625 1.1722500000000002 Q 4.222437744140625 1.1700000000000002 4.172937744140626 1.1700000000000002 Q 4.123437744140626 1.1700000000000002 4.076187744140626 1.1722500000000002 Q 4.0289377441406256 1.1745 4.0049377441406255 1.1760000000000002 L 4.0049377441406255 1.1445 Q 4.058937744140625 1.1445 4.081437744140625 1.122 Q 4.103937744140625 1.0995000000000001 4.103937744140625 1.0365000000000002 L 4.103937744140625 0.6030000000000001 Q 4.103937744140625 0.5565000000000001 4.0964377441406254 0.5175000000000002 Q 4.088937744140625 0.47850000000000015 4.062687744140625 0.4545000000000001 Q 4.036437744140625 0.4305000000000001 3.982437744140625 0.4305000000000001 Q 3.919437744140625 0.4305000000000001 3.872187744140625 0.46650000000000014 Q 3.8249377441406254 0.5025000000000002 3.7986877441406253 0.5647500000000002 Q 3.772437744140625 0.6270000000000001 3.772437744140625 0.7035000000000001 L 3.772437744140625 1.0365000000000002 Q 3.772437744140625 1.0995000000000001 3.794937744140625 1.122 Q 3.817437744140625 1.1445 3.8714377441406254 1.1445 L 3.8714377441406254 1.1760000000000002 Q 3.8474377441406253 1.1745 3.8001877441406253 1.1722500000000002 Q 3.7529377441406253 1.1700000000000002 3.703437744140625 1.1700000000000002 Q 3.653937744140625 1.1700000000000002 3.6014377441406253 1.1722500000000002 Q 3.548937744140625 1.1745 3.523437744140625 1.1760000000000002 L 3.523437744140625 1.1445 Q 3.584937744140625 1.1445 3.6111877441406253 1.122 Q 3.6374377441406254 1.0995000000000001 3.6374377441406254 1.0365000000000002 L 3.6374377441406254 0.5670000000000002 Q 3.6374377441406254 0.49950000000000017 3.6134377441406254 0.46725000000000017 Q 3.5894377441406253 0.43500000000000016 3.523437744140625 0.43500000000000016 L 3.523437744140625 0.4035000000000002 Q 3.571437744140625 0.40800000000000014 3.616437744140625 0.40800000000000014 Q 3.6599377441406253 0.40800000000000014 3.699687744140625 0.40275000000000016 Q 3.7394377441406252 0.3975000000000002 3.772437744140625 0.3870000000000001 L 3.772437744140625 0.5640000000000002 Q 3.8114377441406253 0.4620000000000002 3.8811877441406253 0.4222500000000001 Q 3.9509377441406253 0.3825000000000002 4.0274377441406255 0.3825000000000002 M 4.6754150390625 0.15450000000000008 L 4.6754150390625 0.40500000000000014 L 4.8974150390624995 0.40500000000000014 L 4.8974150390624995 0.43500000000000016 L 4.6754150390625 0.43500000000000016 L 4.6754150390625 1.0155 Q 4.6754150390625 1.086 4.7009150390625 1.1145 Q 4.7264150390625 1.1430000000000002 4.7714150390625 1.1430000000000002 Q 4.8164150390625 1.1430000000000002 4.8494150390624995 1.1062500000000002 Q 4.8824150390625 1.0695000000000001 4.9064150390625 0.9825000000000002 L 4.9364150390625 0.9900000000000002 Q 4.9214150390624996 1.0770000000000002 4.8771650390625 1.1370000000000002 Q 4.8329150390625 1.197 4.7414150390625 1.197 Q 4.6904150390625 1.197 4.6574150390625 1.1842500000000002 Q 4.6244150390625 1.1715000000000002 4.5989150390625 1.1475000000000002 Q 4.5659150390625 1.1130000000000002 4.5531650390625 1.0650000000000002 Q 4.5404150390625 1.0170000000000001 4.5404150390625 0.9375000000000001 L 4.5404150390625 0.43500000000000016 L 4.3964150390625 0.43500000000000016 L 4.3964150390625 0.40500000000000014 L 4.5404150390625 0.40500000000000014 L 4.5404150390625 0.1755000000000002 Q 4.5779150390625 0.17400000000000015 4.6124150390625 0.1695000000000002 Q 4.6469150390625 0.16500000000000004 4.6754150390625 0.15450000000000008 M 5.225891601562499 1.4580000000000002 Q 5.1463916015625 1.4580000000000002 5.0758916015625 1.4415000000000002 Q 5.0053916015625 1.4250000000000003 4.9626416015625 1.3897500000000003 Q 4.919891601562499 1.3545000000000003 4.919891601562499 1.3005000000000002 Q 4.919891601562499 1.2480000000000002 4.9618916015625 1.2105000000000001 Q 5.0038916015625 1.1730000000000003 5.0758916015625 1.1535000000000002 L 5.084891601562499 1.1775000000000002 Q 5.0518916015625 1.1880000000000002 5.0323916015625 1.2195000000000003 Q 5.012891601562499 1.2510000000000001 5.012891601562499 1.2900000000000003 Q 5.012891601562499 1.3590000000000002 5.0766416015625 1.39575 Q 5.1403916015624995 1.4325 5.2423916015625 1.4325 Q 5.3098916015625 1.4325 5.3743916015624995 1.4152500000000001 Q 5.438891601562499 1.3980000000000001 5.480891601562499 1.3575000000000002 Q 5.5228916015625 1.3170000000000002 5.5228916015625 1.2510000000000001 Q 5.5228916015625 1.2015000000000002 5.487641601562499 1.1692500000000001 Q 5.4523916015625 1.1370000000000002 5.348891601562499 1.1370000000000002 L 5.2378916015625 1.1370000000000002 Q 5.1898916015625 1.1370000000000002 5.1448916015625 1.1295000000000002 Q 5.0998916015625 1.122 5.0713916015625 1.098 Q 5.042891601562499 1.074 5.042891601562499 1.0245000000000002 Q 5.042891601562499 0.9735000000000001 5.084891601562499 0.9262500000000001 Q 5.1268916015625 0.8790000000000002 5.2393916015625 0.8295000000000001 L 5.2573916015624995 0.8430000000000002 Q 5.206391601562499 0.8700000000000001 5.1688916015625 0.8977500000000002 Q 5.131391601562499 0.9255000000000002 5.131391601562499 0.9630000000000002 Q 5.131391601562499 1.0110000000000001 5.203391601562499 1.0110000000000001 L 5.390891601562499 1.0110000000000001 Q 5.4538916015625 1.0110000000000001 5.507141601562499 1.0290000000000001 Q 5.5603916015624995 1.0470000000000002 5.5933916015625 1.086 Q 5.626391601562499 1.1250000000000002 5.626391601562499 1.1880000000000002 Q 5.626391601562499 1.2585000000000002 5.581391601562499 1.3200000000000003 Q 5.536391601562499 1.3815000000000002 5.4471416015625 1.41975 Q 5.3578916015625 1.4580000000000002 5.225891601562499 1.4580000000000002 M 5.2333916015624995 0.8565000000000002 Q 5.159891601562499 0.8565000000000002 5.0998916015625 0.8317500000000002 Q 5.039891601562499 0.8070000000000002 5.0053916015625 0.7545000000000002 Q 4.970891601562499 0.7020000000000002 4.970891601562499 0.6195000000000002 Q 4.970891601562499 0.5370000000000001 5.0053916015625 0.48450000000000015 Q 5.039891601562499 0.43200000000000016 5.0998916015625 0.4072500000000001 Q 5.159891601562499 0.3825000000000002 5.2333916015624995 0.3825000000000002 Q 5.3083916015625 0.3825000000000002 5.367641601562499 0.4072500000000001 Q 5.4268916015625 0.43200000000000016 5.461391601562499 0.48450000000000015 Q 5.4958916015625 0.5370000000000001 5.4958916015625 0.6195000000000002 Q 5.4958916015625 0.7020000000000002 5.461391601562499 0.7545000000000002 Q 5.4268916015625 0.8070000000000002 5.367641601562499 0.8317500000000002 Q 5.3083916015625 0.8565000000000002 5.2333916015624995 0.8565000000000002 M 5.2333916015624995 0.8295000000000001 Q 5.2903916015625 0.8295000000000001 5.322641601562499 0.7845000000000002 Q 5.3548916015625 0.7395000000000002 5.3548916015625 0.6195000000000002 Q 5.3548916015625 0.49950000000000017 5.322641601562499 0.4545000000000001 Q 5.2903916015625 0.4095000000000001 5.2333916015624995 0.4095000000000001 Q 5.177891601562499 0.4095000000000001 5.1448916015625 0.4545000000000001 Q 5.111891601562499 0.49950000000000017 5.111891601562499 0.6195000000000002 Q 5.111891601562499 0.7395000000000002 5.1448916015625 0.7845000000000002 Q 5.177891601562499 0.8295000000000001 5.2333916015624995 0.8295000000000001 M 5.4493916015625 0.5070000000000001 L 5.4223916015624996 0.49650000000000016 Q 5.4433916015624995 0.4455000000000001 5.4943916015625 0.4065000000000002 Q 5.5453916015625 0.36750000000000016 5.600891601562499 0.36750000000000016 Q 5.6398916015625 0.36750000000000016 5.6638916015625 0.3892500000000001 Q 5.6878916015625 0.41100000000000014 5.6878916015625 0.4545000000000001 Q 5.6878916015625 0.5010000000000001 5.6631416015625 0.5197500000000002 Q 5.6383916015625 0.5385000000000001 5.6128916015625 0.5385000000000001 Q 5.5903916015625 0.5385000000000001 5.5708916015625 0.5227500000000002 Q 5.5513916015625 0.5070000000000001 5.5483916015625 0.47250000000000014 Q 5.5453916015625 0.43800000000000017 5.5693916015625 0.3840000000000001 L 5.5888916015625 0.3885000000000002 Q 5.5258916015625 0.4125000000000001 5.4988916015625 0.4387500000000002 Q 5.4718916015625 0.4650000000000002 5.4493916015625 0.5070000000000001" fill="#004a80" fill-rule="nonzero"></path></g><g></g><g clip-path="url(#SvgjsClipPath1001)"><g clip-path="url(#SvgjsClipPath10003cbc2f32-0784-4c10-845d-5bf8e89173f3)"><path d=" M -0.6226512081584343 0.8224401768956877 C -0.625375921978302 0.5688122148738384 -0.6297378806877126 0.31479155573826106 -0.6324646083389324 0.061153524559649536 L -0.7920748398402122 -0.028699602724049256 L -0.7822614396597141 0.7325910772746936 L -0.6227418305692944 0.8224401768956875 Z" fill="#ff9433" transform="matrix(1,0,0,1,0,0)" fill-rule="nonzero"></path></g><g clip-path="url(#SvgjsClipPath10003cbc2f32-0784-4c10-845d-5bf8e89173f3)"><path d=" M -1.2292937371083386 0.9698123552681173 L -1.2298717067064922 0.8577023638771203 L -1.2300730898417371 0.8576097276349074 L -1.2302563484948101 0.8116561100033075 C -1.2316176984890674 0.6099970798628319 -1.2330757123882428 0.6987848903610837 -1.2341349876796321 0.49730911887368123 L -1.0760029083910523 0.40494273006212256 L -1.0711515886629952 0.875482480887918 L -1.1471938605315788 0.9198653100646054 L -0.7395943947953147 1.1587479989238019 L -0.8191407332171647 1.204699602724049 C -0.9474620669953998 1.1311544817325059 -1.0618074111876183 1.0652961550132716 -1.2291789487212477 0.9698123552681172 Z" fill="#ff9433" transform="matrix(1,0,0,1,0,0)" fill-rule="nonzero"></path></g><g clip-path="url(#SvgjsClipPath10003cbc2f32-0784-4c10-845d-5bf8e89173f3)"><path d=" M -1.0087912870029705 0.8408908997468518 L -1.0093692566011245 0.7288030605007317 L -1.0095545290855499 0.728710424258519 L -1.0098525761257127 0.6827588204582716 L -1.0133606703416838 0.457008325848414 L -1.0131592872064388 0.457008325848414 L -1.013646634393732 0.36850849323356294 L -0.8555145551051521 0.27614210442200426 L -0.8506410832322185 0.7466818552477998 L -0.9267055072456787 0.7911875281369868 L -0.5178433692514277 1.0308334590787624 L -0.5973897076732778 1.0767608969027807 C -0.7263091493631908 1.0029378671845985 -0.8408236553890153 0.9369869042231516 -1.008793300834323 0.8412010297751296 Z" fill="#ff9433" transform="matrix(1,0,0,1,0,0)" fill-rule="nonzero"></path></g><g clip-path="url(#SvgjsClipPath10003cbc2f32-0784-4c10-845d-5bf8e89173f3)"><path d=" M -0.3999999999999997 0.9477588881274167 C -0.4027267276512201 0.6941188431174528 -0.40708868636063067 0.4401001978132278 -0.40981340018049783 0.18647022196002616 L -0.5694256455131308 0.09662112233903228 L -0.5596082176699275 0.8579097885064229 L -0.400112774555737 0.9477588881274165 Z" fill="#ff9433" transform="matrix(1,0,0,1,0,0)" fill-rule="nonzero"></path></g></g></g><defs><clipPath id="SvgjsClipPath1001"><path d=" M -1.2341430430050429 -0.028699602724049256 h 0.8341430430050428 v 1.2333992054480987 h -0.8341430430050428 Z"></path></clipPath><clipPath id="SvgjsClipPath10003cbc2f32-0784-4c10-845d-5bf8e89173f3"><path d=" M -1.2341430430050429 -0.028699602724049256 L -0.4 -0.028699602724049256 L -0.4 1.2046996027240495 L -1.2341430430050426 1.2046996027240495 Z"></path></clipPath></defs></svg>